<svg class="w-full h-full object-contain scale-[0.5] 800:scale-[0.2] transition-transform duration-500 pointer-events-auto svelte-1vkxyu9" width="278" height="61" viewBox="0 0 278 61" fill="none" xmlns="http://www.w3.org/2000/svg"><a href="/" aria-label="Cousins" sveltekit:prefetch=""><path d="M276.647 33.3189C275.746 31.3119 274.298 29.4798 272.301 27.8313C270.496 26.4408 268.838 25.3958 267.329 24.7006C265.819 24.0053 264.41 23.4894 263.091 23.1527C261.778 22.8204 260.525 22.6017 259.328 22.4968C258.136 22.3919 257.001 22.2126 255.931 21.9546C253.934 21.5436 252.507 20.9402 251.659 20.14C250.806 19.3398 250.38 18.3997 250.38 17.3153C250.38 16.2878 250.889 15.5138 251.911 14.9979C252.938 14.4819 254.225 14.2239 255.787 14.2239C256.762 14.2239 257.71 14.4294 258.637 14.8448C259.559 15.2558 260.486 15.7193 261.412 16.2353C262.339 16.7513 263.261 17.2147 264.188 17.6258C265.114 18.0412 266.063 18.2467 267.037 18.2467C268.355 18.2467 269.521 18.0149 270.548 17.5471C271.57 17.0836 272.419 16.5064 273.102 15.8112C273.785 15.1115 274.311 14.3289 274.676 13.45C275.042 12.5755 275.224 11.701 275.224 10.8221C275.224 9.53654 274.65 8.23352 273.506 6.91738C272.362 5.60562 270.826 4.44689 268.903 3.4412C266.976 2.43551 264.749 1.6091 262.217 0.966335C259.681 0.323569 257.001 0 254.178 0C250.232 0 246.921 0.61653 244.241 1.85396C241.562 3.0914 239.417 4.48187 237.812 6.02975C237.581 6.25275 237.355 6.4845 237.137 6.71624C236.894 5.57063 236.559 4.6043 236.145 3.82161C235.532 2.676 234.714 1.87145 233.705 1.40796C232.691 0.944472 231.438 0.708354 229.946 0.708354C226.957 0.708354 224.826 2.18628 223.547 5.13338C223.173 5.89858 222.903 6.93924 222.746 8.25101C222.585 9.5584 222.477 10.8702 222.424 12.1819C222.372 13.4937 222.359 14.683 222.385 15.7456C222.411 16.8125 222.424 17.5383 222.424 17.9187C222.424 20.1575 222.133 21.8409 221.546 22.9603C220.958 24.0797 220.345 24.6393 219.705 24.6393C218.796 24.6393 217.543 23.6555 215.947 21.6879C214.346 19.7202 212.61 16.9349 210.744 13.3275C209.626 11.0888 208.49 9.0818 207.346 7.30654C206.198 5.53128 205.306 4.31571 204.666 3.65983C203.548 2.51422 202.348 1.65283 201.069 1.08002C199.785 0.507216 198.106 0.218628 196.026 0.218628C192.72 0.218628 190.428 1.17622 189.149 3.08702C188.435 4.14955 187.922 5.53128 187.604 7.22346C187.221 5.5925 186.63 4.27636 185.834 3.28379C184.946 2.17753 183.802 1.39047 182.401 0.926982C181 0.463491 179.304 0.231745 177.316 0.231745C174.301 0.231745 172.065 1.31177 170.612 3.48055C170.072 4.2851 169.637 5.16836 169.298 6.13907C168.263 5.14212 166.975 4.24138 165.444 3.4412C163.521 2.43551 161.289 1.6091 158.757 0.966335C156.225 0.323569 153.545 0 150.722 0C146.776 0 143.461 0.61653 140.786 1.85396C138.106 3.0914 135.961 4.48187 134.352 6.02975L134.256 6.12595C133.943 4.88414 133.516 3.86097 132.968 3.05204C132.25 1.99826 131.315 1.25055 130.162 0.813295C129.009 0.37604 127.587 0.153039 125.895 0.153039C124.202 0.153039 122.88 0.397902 121.779 0.887629C120.674 1.37735 119.791 2.16441 119.125 3.24881C118.46 4.32883 117.981 5.73242 117.703 7.45958C117.42 9.18674 117.281 11.2856 117.281 13.7604V34.4776C117.281 37.7264 116.537 40.1357 115.049 41.7054C113.561 43.2795 111.743 44.0666 109.59 44.0666C108.458 44.0666 107.445 43.8086 106.549 43.2927C105.652 42.7767 104.882 42.0946 104.243 41.2419C103.599 40.3937 103.099 39.388 102.742 38.2292C102.381 37.0705 102.203 35.82 102.203 34.4776V13.7604C102.203 11.1325 102.037 8.94187 101.702 7.18848C101.372 5.43946 100.819 4.01838 100.049 2.93836C99.2792 1.85396 98.283 1.09314 97.0518 0.655883C95.8207 0.218628 94.3067 0 92.5144 0C89.4344 0 87.3331 1.15873 86.2064 3.48055C85.7975 4.32008 85.4625 5.31265 85.2015 6.44515C83.2612 4.86665 81.1209 3.55489 78.7847 2.51422C75.3741 0.99257 71.772 0.231745 67.9741 0.231745C63.1539 0.231745 58.9384 1.08002 55.3233 2.78094C52.526 4.09708 50.0289 5.83299 47.832 7.98866C47.0533 7.18411 46.1571 6.3883 45.1522 5.60562C44.0603 4.75297 42.9248 4.01838 41.7546 3.40185C40.8454 2.93836 39.9536 2.51422 39.0748 2.12506C38.196 1.74028 37.2085 1.41671 36.1166 1.15873C35.0203 0.900746 33.7804 0.695236 32.3927 0.542197C31.0092 0.384785 29.3257 0.310451 27.355 0.310451C23.6746 0.310451 20.0768 1.07128 16.5574 2.58855C13.038 4.1102 9.91878 6.39267 7.19547 9.4316C2.39704 14.6874 0 21.6966 0 30.4592C0 34.5825 0.730858 38.4216 2.19692 41.9765C3.66299 45.5358 5.71635 48.6403 8.35701 51.2944C10.9977 53.9486 14.1691 56.0343 17.8756 57.5559C21.5821 59.0732 25.6496 59.8384 30.0739 59.8384C32.5275 59.8384 34.9811 59.4361 37.4347 58.636C39.8883 57.8402 42.1157 56.8082 44.1125 55.5446C45.6264 54.5913 46.9272 53.5594 48.0104 52.4575C50.4596 54.7619 53.27 56.5984 56.437 57.9801C59.8738 59.4755 63.5672 60.2232 67.513 60.2232C71.4587 60.2232 75.3349 59.4886 78.8195 58.0194C82.3085 56.5503 85.332 54.5039 87.8987 51.8716C88.2902 51.4693 88.673 51.0539 89.0385 50.6254C91.2006 53.6338 93.9761 55.9031 97.3563 57.4379C101.102 59.1388 105.178 59.9915 109.59 59.9915C110.868 59.9915 112.382 59.8734 114.127 59.6416C115.867 59.4099 117.69 58.9595 119.587 58.2905C121.483 57.6215 123.341 56.7033 125.164 55.5446C126.795 54.5039 128.283 53.1834 129.618 51.5874C129.845 51.9722 130.106 52.3526 130.406 52.7243C131.576 54.1672 133.173 55.4309 135.196 56.5109C137.214 57.5953 139.555 58.4436 142.208 59.0645C144.862 59.681 147.699 59.9915 150.722 59.9915C155.107 59.9915 158.805 59.3968 161.828 58.2118C164.761 57.0618 167.171 55.5708 169.041 53.7343C169.285 54.5476 169.607 55.2953 170.007 55.9731C170.734 57.2061 171.743 58.1725 173.035 58.8721C174.327 59.5673 176.076 59.9127 178.286 59.9127C183.31 59.9127 186.447 57.7527 187.687 53.4282C187.852 54.3771 188.087 55.2254 188.387 55.9818C188.892 57.2673 189.666 58.2381 190.706 58.8896C191.746 59.5454 193.199 59.8734 195.069 59.8734C198.002 59.8734 200.029 58.566 201.147 55.9425C201.308 55.4484 201.469 54.9718 201.625 54.5083C201.786 54.0448 201.947 53.3758 202.108 52.5013C202.265 51.6268 202.387 50.4637 202.465 49.0163C202.548 47.569 202.587 45.6145 202.587 43.1571C202.587 38.461 203.6 36.1086 205.628 36.1086C206.372 36.1086 207.32 36.8781 208.464 38.4041C209.613 39.9345 210.8 41.6836 212.027 43.6512C212.667 44.7444 213.371 45.9599 214.146 47.2979C214.92 48.6359 215.664 49.9171 216.386 51.1458C217.104 52.3788 217.743 53.4545 218.305 54.3858C218.866 55.3128 219.279 55.89 219.544 56.1042C220.667 57.2542 221.959 58.2249 223.425 59.0164C224.891 59.8078 226.796 60.2013 229.146 60.2013C232.874 60.2013 235.397 58.5747 236.707 55.3216C237.307 55.7413 237.955 56.1349 238.651 56.5109C240.67 57.5953 243.01 58.4436 245.664 59.0645C248.322 59.681 251.158 59.9915 254.178 59.9915C258.563 59.9915 262.265 59.3968 265.284 58.2118C268.303 57.0269 270.765 55.4833 272.666 53.5725C274.568 51.6617 275.929 49.541 276.756 47.1974C277.587 44.8537 278 42.5187 278 40.2013C278 37.6215 277.548 35.3302 276.647 33.3189ZM40.8236 19.4054C39.6447 23.0652 39.0574 27.0836 39.0574 31.4649C39.0574 34.9236 39.6055 38.1899 40.7062 41.2682C40.0623 41.4431 39.2923 41.7579 38.3961 42.2083C37.4869 42.6761 36.6864 43.1134 35.9947 43.5244C35.2987 43.9354 34.5939 44.2984 33.8761 44.6044C33.154 44.9149 32.3666 45.1597 31.5139 45.339C30.6612 45.5227 29.5954 45.6101 28.3164 45.6101C26.7155 45.6101 25.1406 45.1597 23.5963 44.259C22.0475 43.3583 20.7033 42.0683 19.5548 40.3937C18.4107 38.719 17.558 36.6945 16.9968 34.3246C16.4356 31.9546 16.3703 29.3267 16.7967 26.4408C17.1708 23.861 17.8625 21.7884 18.8761 20.2143C19.8898 18.6446 21.0078 17.4334 22.2346 16.5807C23.4614 15.7325 24.6882 15.1771 25.915 14.9192C27.1418 14.6612 28.1554 14.5344 28.9559 14.5344C29.7563 14.5344 30.7134 14.6481 31.8358 14.8798C32.9538 15.1115 33.9675 15.5138 34.8724 16.0779L39.3532 18.7102C39.823 18.9681 40.3233 19.1737 40.8497 19.3223C40.841 19.3486 40.8323 19.3792 40.8236 19.4054ZM79.2067 36.5677C78.589 38.4741 77.7058 40.0963 76.553 41.4387C75.4002 42.7767 74.0254 43.8217 72.4376 44.5695C70.8453 45.3172 69.1052 45.6888 67.2085 45.6888C65.4118 45.6888 63.7717 45.3521 62.2839 44.6831C60.796 44.0141 59.504 42.9953 58.399 41.6311C57.2984 40.2669 56.437 38.5528 55.8236 36.489C55.2102 34.4295 54.9013 32.0333 54.9013 29.3005C54.9013 27.0836 55.2102 25.046 55.8236 23.192C56.437 21.3381 57.2853 19.7508 58.3599 18.4391C59.4387 17.1229 60.7177 16.1085 62.2056 15.3826C63.6934 14.6612 65.3074 14.3026 67.0518 14.3026C69.3619 14.3026 71.3326 14.7792 72.977 15.7325C74.6171 16.6857 75.9744 17.9231 77.0533 19.4448C78.1278 20.962 78.9109 22.663 79.3981 24.5431C79.8854 26.4277 80.129 28.321 80.129 30.2275C80.129 32.5449 79.8201 34.6612 79.2067 36.5677ZM155.542 44.8405C154.376 45.6626 152.767 46.0736 150.722 46.0736C148.917 46.0736 147.385 45.855 146.119 45.4177C144.849 44.9805 143.692 44.4907 142.648 43.9485C141.599 43.4064 140.603 42.9079 139.65 42.44C138.702 41.9765 137.667 41.7448 136.544 41.7448C135.787 41.7448 135.026 41.8497 134.265 42.0596C134.734 39.987 134.969 37.6652 134.969 35.0985V31.9677C135.056 32.0333 135.143 32.0946 135.23 32.1601C137.275 33.708 139.507 34.8012 141.917 35.4439C144.327 36.0911 147.116 36.642 150.283 37.1055C152.327 37.416 154.011 38.0106 155.325 38.8851C156.638 39.764 157.3 40.8178 157.3 42.0552C157.3 43.0872 156.712 44.0141 155.542 44.8405ZM168.358 27.464C166.744 26.2572 165.248 25.3346 163.873 24.7006C162.364 24.0053 160.95 23.4894 159.636 23.1527C158.322 22.8204 157.065 22.6017 155.873 22.4968C154.676 22.3919 153.545 22.2126 152.475 21.9546C150.478 21.5436 149.051 20.9402 148.199 20.14C147.346 19.3398 146.92 18.3997 146.92 17.3153C146.92 16.2878 147.433 15.5138 148.455 14.9979C149.478 14.4819 150.77 14.2239 152.327 14.2239C153.302 14.2239 154.254 14.4294 155.177 14.8448C156.103 15.2558 157.03 15.7193 157.957 16.2353C158.879 16.7513 159.806 17.2147 160.732 17.6258C161.654 18.0412 162.607 18.2467 163.582 18.2467C164.895 18.2467 166.066 18.0149 167.088 17.5471C167.567 17.3284 168.006 17.0879 168.41 16.8212L168.358 27.464ZM259.002 44.8405C257.832 45.6626 256.222 46.0736 254.178 46.0736C252.376 46.0736 250.841 45.855 249.575 45.4177C248.309 44.9805 247.152 44.4907 246.103 43.9485C245.055 43.4064 244.059 42.9079 243.11 42.44C242.158 41.9765 241.122 41.7448 240.004 41.7448C239.265 41.7448 238.521 41.8453 237.781 42.0421V31.4562C238.073 31.701 238.373 31.9328 238.686 32.1601C240.735 33.708 242.962 34.8012 245.372 35.4439C247.787 36.0911 250.571 36.642 253.738 37.1055C255.787 37.416 257.466 38.0106 258.78 38.8851C260.098 39.764 260.755 40.8178 260.755 42.0552C260.755 43.0872 260.168 44.0141 259.002 44.8405Z" fill="#A25623" class="svelte-1vkxyu9"></path></a></svg>