<svg xmlns="http://www.w3.org/2000/svg" width="269.419" height="40.177" viewBox="0 0 269.419 40.177">
				<g id="Group_35" data-name="Group 35" transform="translate(-48.516 -69.954)">
					<path id="Path_56" data-name="Path 56" d="M171.6,69.954H151.076V78.8h-5.64v5.016h5.64v16.633c0,6.767,4.284,8.681,9.021,8.681h16.97V97.748h-2.821c-2.309,0-2.649-.507-2.649-2.761V83.821h5.47V78.8H171.6Z" transform="translate(-32.121)" fill="#fff"></path>
					<path id="Path_57" data-name="Path 57" d="M234.171,78.127h-.283c-.09,0-.175.007-.264.008v-.009H217.086V69.954h-20.52v39.181h20.52V95.492c0-2.931,1.524-5.75,5.807-5.75,4.68,0,5.807,2.876,5.807,5.807v13.586h20.522V89.065C249.223,86.021,247.024,78.127,234.171,78.127Z" transform="translate(-49.066)" fill="#fff"></path>
					<path id="Path_58" data-name="Path 58" d="M427.2,103.288v.508a11.788,11.788,0,0,1-.123,1.744c-.5,3.289-2.749,6.183-10,7.638a65.244,65.244,0,0,1-12.6.995h-4.568a52.624,52.624,0,0,1-11.034-.995c-7.7-1.674-9.965-5.156-10.516-8.066a9.279,9.279,0,0,1-.155-1.706v-.455H398.9c.053,1.353.727,2.931,3.38,2.931h.112c2.423,0,3.215-.9,3.215-1.974v-.053c0-1.3-.792-1.92-4.172-2.086l-8.285-.337c-11.9-.62-14.436-4.9-14.436-9.644v-.4c0-5.638,4.284-9.243,21.256-9.243h4.4c.546,0,1.075.005,1.589.011,16.608.241,20,4.311,20,9.12v.508H405.83c0-.733-.225-2.257-3.386-2.257h-.112c-2.872,0-3.38.567-3.38,1.637,0,.9.733,1.69,4.231,1.861l8.285.337c.176.011.353.016.529.027C424.566,94.078,427.2,97.335,427.2,103.288Z" transform="translate(-109.263 -4.042)" fill="#fff"></path>
					<path id="Path_59" data-name="Path 59" d="M114.481,99.63v-.792c0-7.044-1.637-16.913-25.374-16.913H73.436c-23.229,0-24.92,9.7-24.92,15.335v.792c0,5.638,1.578,15.9,24.866,15.9H89.107c23,0,25.374-7.948,25.374-12.345v-.112H94.242c-.171.62-.679,3.1-6.033,3.1-.043,0-.075-.011-.112-.011v.043H74.9v-.043c-4.8-.043-5.974-2.717-6.146-4.953ZM74.9,90.158H88.1c4.509,0,5.8,1.524,6.087,3.386H68.814C69.092,91.794,70.109,90.158,74.9,90.158Z" transform="translate(0 -3.968)" fill="#fff"></path>
					<path id="Path_60" data-name="Path 60" d="M318.829,82.15h-15.2c-23,0-25.256,10.034-25.256,15.447v.792c0,5.466,2.2,15.784,25.31,15.784h15.035c23.507,0,25.315-10.318,25.315-15.73v-.9C344.032,92.184,342.4,82.15,318.829,82.15Zm-2.311,22.491H305.88c-5.637,0-6.707-4.113-6.707-6.873,0-2.428,1.182-6.151,6.707-6.151h10.639c5.638,0,6.707,3.723,6.707,6.151C323.226,100.469,322.044,104.641,316.519,104.641Z" transform="translate(-76.178 -4.042)" fill="#fff"></path>
				</g>
			</svg>