<svg width="50" height="39" viewBox="0 0 50 39" fill="none" xmlns="http://www.w3.org/2000/svg" class="w-[40px] md:h-[39px] md:w-[50px]"><path d="M12.0164 39C8.20633 39 4.39625 39 0.586166 39C0 39 0 39 0 38.4205C0 30.974 0 23.4985 0 16.052C0 15.4725 0 15.4725 0.586166 15.4725C2.1102 15.4725 3.63423 15.4725 5.18757 15.4725C5.71512 15.4725 5.74443 15.4435 5.74443 14.922C5.74443 12.6909 5.74443 10.4889 5.74443 8.2578C5.74443 7.85215 5.86166 7.76523 6.27198 7.76523C9.8476 7.7942 13.4232 7.76523 16.9988 7.76523C17.6143 7.76523 17.6143 7.76523 17.6143 7.15676C17.6143 4.95468 17.6143 2.72363 17.6143 0.521545C17.6143 0.144874 17.7022 0.0289747 18.1125 0.0289747C23.1536 0 28.1653 0 33.177 0C33.5287 0 33.646 0.115899 33.6166 0.463596C33.6166 2.69465 33.6166 4.89673 33.6166 7.12779C33.6166 7.70728 33.646 7.73626 34.2321 7.73626C36.694 7.73626 39.1559 7.73626 41.6178 7.73626C42.1747 7.73626 42.1747 7.73626 42.1747 7.15676C42.1747 4.92571 42.1747 2.72363 42.1747 0.492571C42.1747 0.115899 42.2919 0 42.6729 0C44.959 0.0289747 47.245 0 49.5311 0C49.8828 0 50 0.115899 50 0.434621C50 2.72363 50 5.0416 50 7.33061C50 7.67831 49.8828 7.7942 49.5311 7.7942C47.2743 7.7942 45.0469 7.7942 42.7901 7.7942C42.2626 7.7942 42.2333 7.82318 42.2333 8.34472C42.2333 10.5758 42.2333 12.8068 42.2333 15.0669C42.2333 15.6174 42.2626 15.6174 42.7901 15.6174C44.2849 15.6174 45.8089 15.6174 47.3036 15.6174C47.6553 15.6174 47.7726 15.7333 47.7726 16.052C47.7726 23.5275 47.7726 31.0319 47.7726 38.5074C47.7726 38.8841 47.626 38.971 47.2743 38.971C44.959 38.971 42.6143 38.971 40.2989 38.971C39.8007 38.971 39.8007 38.942 39.8007 38.4495C39.8007 33.6397 39.8007 28.8588 39.8007 24.049C39.8007 23.4116 39.8007 23.4116 39.1559 23.4116C34.32 23.4116 29.4842 23.4116 24.6776 23.4116C24.0328 23.4116 24.0328 23.4116 24.0328 24.049C24.0328 28.8299 24.0328 33.6397 24.0328 38.4205C24.0328 38.971 24.0328 38.971 23.4467 38.971C19.6366 39 15.8265 39 12.0164 39Z" fill="currentColor"></path></svg>